<svg xmlns="http://www.w3.org/2000/svg" width="13" height="13" viewBox="0 0 13 13"><defs><style>.a{fill:#42738d;}</style></defs><g transform="translate(-48.9 -494.1)"><path class="a" d="M61.6,503H59.9v-6.5l1.9-1.9c0-.1.1-.1.1-.2s0-.1-.1-.2c-.1,0-.1-.1-.2-.1s-.1,0-.2.1l-1.9,1.9H53v-1.7c0-.1,0-.1-.1-.2a.349.349,0,0,0-.2-.1H51.2c-.1,0-.1,0-.2.1a.349.349,0,0,0-.1.2v1.7H49.2c-.1,0-.1,0-.2.1a.349.349,0,0,0-.1.2v1.5c0,.1,0,.1.1.2a.349.349,0,0,0,.2.1h1.7v6.6c0,.1,0,.1.1.2a.349.349,0,0,0,.2.1h6.6v1.7c0,.1,0,.1.1.2a.349.349,0,0,0,.2.1h1.5c.1,0,.1,0,.2-.1a.349.349,0,0,0,.1-.2v-1.7h1.7c.1,0,.1,0,.2-.1a.349.349,0,0,0,.1-.2v-1.5c0-.1,0-.1-.1-.2S61.7,503,61.6,503ZM53,498.1h4.5L53,502.6Zm4.9,4.9H53.4l4.5-4.5Z"/></g></svg>