<svg xmlns="http://www.w3.org/2000/svg" width="18" height="18" viewBox="0 0 18 18"><defs><style>.a,.d{fill:none;}.a{stroke:#8c8c8c;}.b{fill:#8c8c8c;}.c{stroke:none;}</style></defs><g transform="translate(-1259 -356)"><g class="a" transform="translate(1259 356)"><circle class="c" cx="9" cy="9" r="9"/><circle class="d" cx="9" cy="9" r="8.5"/></g><path class="b" d="M5.375,10A1.368,1.368,0,1,0,6.75,11.368,1.376,1.376,0,0,0,5.375,10Zm8.25,0A1.368,1.368,0,1,0,15,11.368,1.376,1.376,0,0,0,13.625,10ZM9.5,10a1.368,1.368,0,1,0,1.375,1.368A1.376,1.376,0,0,0,9.5,10Z" transform="translate(1258.5 353.631)"/></g></svg>