<svg xmlns="http://www.w3.org/2000/svg" width="9.576" height="9.492" viewBox="0 0 9.576 9.492"><defs><style>.a{fill:#919191;}</style></defs><path class="a" d="M-1.652-9.408H-3.64v2.17h-1.2v1.33h1.2v4.27C-3.64-.2-2.576.084-1.358.084A7.624,7.624,0,0,0-.2.014V-1.54a3.057,3.057,0,0,1-.616.056c-.672,0-.84-.168-.84-.84V-5.908H-.2v-1.33H-1.652Zm4.928,0H1.288v2.17H.084v1.33h1.2v4.27C1.288-.2,2.352.084,3.57.084A7.624,7.624,0,0,0,4.732.014V-1.54a3.057,3.057,0,0,1-.616.056c-.672,0-.84-.168-.84-.84V-5.908H4.732v-1.33H3.276Z" transform="translate(4.844 9.408)"/></svg>