<svg xmlns="http://www.w3.org/2000/svg" xmlns:xlink="http://www.w3.org/1999/xlink" width="27" height="27" viewBox="0 0 27 27"><defs><style>.a{fill:#fff;}.b{fill:#58595b;}.c,.d{stroke:none;}.d{fill:#58595b;}.e{filter:url(#a);}</style><filter id="a" x="0" y="0" width="27" height="27" filterUnits="userSpaceOnUse"><feOffset input="SourceAlpha"/><feGaussianBlur stdDeviation="1.5" result="b"/><feFlood flood-opacity="0.353"/><feComposite operator="in" in2="b"/><feComposite in="SourceGraphic"/></filter></defs><g transform="translate(-1107 -182.935)"><g class="e" transform="matrix(1, 0, 0, 1, 1107, 182.93)"><g class="a" transform="translate(4.5 4.5)"><path class="c" d="M 9 17.5 C 4.313079833984375 17.5 0.5 13.68692016601562 0.5 9 C 0.5 4.313079833984375 4.313079833984375 0.5 9 0.5 C 13.68692016601562 0.5 17.5 4.313079833984375 17.5 9 C 17.5 13.68692016601562 13.68692016601562 17.5 9 17.5 Z"/><path class="d" d="M 9 1 C 4.588789939880371 1 1 4.588789939880371 1 9 C 1 13.41121006011963 4.588789939880371 17 9 17 C 13.41121006011963 17 17 13.41121006011963 17 9 C 17 4.588789939880371 13.41121006011963 1 9 1 M 9 0 C 13.97056007385254 0 18 4.029439926147461 18 9 C 18 13.97056007385254 13.97056007385254 18 9 18 C 4.029439926147461 18 0 13.97056007385254 0 9 C 0 4.029439926147461 4.029439926147461 0 9 0 Z"/></g></g><path class="b" d="M5.375,10A1.368,1.368,0,1,0,6.75,11.368,1.376,1.376,0,0,0,5.375,10Zm8.25,0A1.368,1.368,0,1,0,15,11.368,1.376,1.376,0,0,0,13.625,10ZM9.5,10a1.368,1.368,0,1,0,1.375,1.368A1.376,1.376,0,0,0,9.5,10Z" transform="translate(1111 185.065)"/></g></svg>